<?xml version="1.0" encoding="utf-8"?>
<!-- Generator: Adobe Illustrator 21.1.0, SVG Export Plug-In . SVG Version: 6.00 Build 0)  -->
<svg version="1.1" id="Layer_1" xmlns="http://www.w3.org/2000/svg" xmlns:xlink="http://www.w3.org/1999/xlink" x="0px" y="0px"
	 width="24px" height="24px" viewBox="0 0 24 24" style="enable-background:new 0 0 24 24;" xml:space="preserve">
<title>admin-users</title>
<path d="M12,11c-2.8,0-3.4-4.3-3.4-4.3C8.3,4.5,9.3,2,12,2c2.7,0,3.7,2.5,3.4,4.7C15.3,6.7,14.8,11,12,11z M12,14.2l3.4-2.3
	c3,0,5.6,2.9,5.6,5.6v3.1c0,0-4.5,1.4-9,1.4c-4.5,0-9-1.4-9-1.4v-3.1C3,14.7,5.4,12,8.6,12L12,14.2z"/>
</svg>
