<?xml version="1.0" encoding="utf-8"?>
<!-- Generator: Adobe Illustrator 21.1.0, SVG Export Plug-In . SVG Version: 6.00 Build 0)  -->
<svg version="1.1" id="Layer_1" xmlns="http://www.w3.org/2000/svg" xmlns:xlink="http://www.w3.org/1999/xlink" x="0px" y="0px"
	 width="24px" height="24px" viewBox="0 0 24 24" style="enable-background:new 0 0 24 24;" xml:space="preserve">
<title>admin-network</title>
<path d="M20.3,3.7c2.3,2.3,2.3,6.1,0,8.4c-1.7,1.8-4.3,2.2-6.4,1.2l-2.1,3.9l-3.4,0.4L6.6,22H3.1L2,19.6l9.1-9.1
	c-1.1-2.2-0.7-4.9,1.1-6.8C14.4,1.4,18.1,1.4,20.3,3.7z M17.4,8.2c0.8,0,1.5-0.7,1.5-1.6c0-0.9-0.7-1.6-1.5-1.6
	c-0.8,0-1.5,0.7-1.5,1.6C15.9,7.5,16.6,8.2,17.4,8.2z"/>
</svg>
