<?xml version="1.0" encoding="utf-8"?>
<!-- Generator: Adobe Illustrator 21.1.0, SVG Export Plug-In . SVG Version: 6.00 Build 0)  -->
<svg version="1.1" id="Layer_1" xmlns="http://www.w3.org/2000/svg" xmlns:xlink="http://www.w3.org/1999/xlink" x="0px" y="0px"
	 width="24px" height="24px" viewBox="0 0 24 24" style="enable-background:new 0 0 24 24;" xml:space="preserve">
<title>admin-site-alt2</title>
<path d="M12,1C5.9,1,1,5.9,1,12s4.9,11,11,11s11-4.9,11-11S18.1,1,12,1z M15.6,16.1c0,0.4,0.2,0.8,0.4,0.8c0.3,0,0.6-0.3,0.7-0.7
	l0.2,0.1c0.9,0.5,1.3,1.5,1,2.4c-0.2,0.8-0.9,1.4-1.7,1.5c-0.6-1.5-2.5,0.1-4.4-0.3c-0.7-0.2-1.3-0.7-1.6-1.4
	C11.7,18.3,13.7,16.4,15.6,16.1z M10.8,14.8c1.1,0,2-0.8,2.2-1.9c0.5,0.6,0.5,1.6-0.1,2.2c-0.3,0.3-0.7,0.4-1.1,0.3
	C11.4,15.3,11,15.2,10.8,14.8z M14.4,13.8c0.5,0.5,3.7-0.1,4.3,1.3C17.6,15,15.2,16,14.4,13.8L14.4,13.8z M12.9,7.6
	c0,0.1,0,0.2,0,0.3C12.1,7,11.3,6.6,11,7.2s1.2,1.3,0.9,2.3c-0.3,1-1.5,0.7-2.3,1.9c-0.8,1.2-0.6,3.1,1.5,4.6
	c-1.4-0.2-2.6-1.2-3.1-2.5c-0.5-1.4-0.1-2.8-0.9-3.1c-1.2-0.3-2.4,1.2-2.4,2.5c-1.5-1.5,0.1-3.5-1.4-5.1c2-4.4,7.1-6.6,11.8-5.1
	C13.6,4.1,12.9,5.8,12.9,7.6L12.9,7.6z"/>
</svg>
