<?xml version="1.0" encoding="utf-8"?>
<!-- Generator: Adobe Illustrator 21.1.0, SVG Export Plug-In . SVG Version: 6.00 Build 0)  -->
<svg version="1.1" id="Layer_1" xmlns="http://www.w3.org/2000/svg" xmlns:xlink="http://www.w3.org/1999/xlink" x="0px" y="0px"
	 width="24px" height="24px" viewBox="0 0 24 24" style="enable-background:new 0 0 24 24;" xml:space="preserve">
<title>admin-site-alt3</title>
<path d="M12,1C5.9,1,1,5.9,1,12s4.9,11,11,11s11-4.9,11-11S18.1,1,12,1z M2.3,12.8h3.1c0,1.1,0.2,2.2,0.5,3.3H3.2
	C2.7,15.1,2.4,13.9,2.3,12.8L2.3,12.8z M12.8,6.2V2.4C14,2.9,15,3.8,15.6,4.9c0.2,0.4,0.5,0.8,0.6,1.3H12.8z M16.8,7.9
	c0.3,1.1,0.4,2.1,0.5,3.3h-4.5V7.9C12.8,7.9,16.8,7.9,16.8,7.9z M11.2,2.4v3.8H7.8C8,5.8,8.2,5.4,8.4,4.9C9,3.8,10,2.9,11.2,2.4
	L11.2,2.4z M11.2,7.9v3.3H6.7C6.8,10.1,7,8.9,7.2,7.9H11.2z M5.4,11.2H2.3c0.1-1.1,0.4-2.2,0.9-3.4h2.6C5.6,8.9,5.5,10.1,5.4,11.2
	L5.4,11.2z M6.7,12.8h4.4v3.3H7.2C7,15.1,6.8,13.9,6.7,12.8L6.7,12.8z M11.2,17.7v3.8C10,21.1,9,20.1,8.4,19
	c-0.2-0.4-0.5-0.8-0.6-1.3H11.2z M12.8,21.5v-3.7h3.4c-0.2,0.4-0.4,0.9-0.6,1.3C15,20.3,14,21.1,12.8,21.5
	C12.8,21.6,12.8,21.5,12.8,21.5z M12.8,16.1v-3.3h4.4c0,1.1-0.2,2.2-0.5,3.3H12.8z M18.6,12.8h3.1c-0.1,1.1-0.4,2.2-0.9,3.3h-2.6
	C18.4,15.1,18.5,13.9,18.6,12.8L18.6,12.8z M18.6,11.1c-0.1-1-0.2-2.1-0.5-3.2h2.6c0.5,1,0.8,2.1,0.9,3.3L18.6,11.1z M19.8,6.2h-2.1
	c-0.4-1.1-1-2.1-1.7-3.1C17.4,3.9,18.7,4.9,19.8,6.2L19.8,6.2z M8,3.1C7.3,4.1,6.7,5.1,6.3,6.2h-2C5.3,4.9,6.6,3.9,8,3.1L8,3.1z
	 M4.3,17.8h2.1c0.4,1.1,1,2.1,1.7,3.1C6.6,20.3,5.3,19.1,4.3,17.8L4.3,17.8z M15.9,20.9c0.7-0.9,1.3-1.9,1.7-3.1h2.1
	C18.7,19.1,17.4,20.1,15.9,20.9L15.9,20.9z"/>
</svg>
