<?xml version="1.0" encoding="utf-8"?>
<!-- Generator: Adobe Illustrator 21.1.0, SVG Export Plug-In . SVG Version: 6.00 Build 0)  -->
<svg version="1.1" id="Layer_1" xmlns="http://www.w3.org/2000/svg" xmlns:xlink="http://www.w3.org/1999/xlink" x="0px" y="0px"
	 width="24px" height="24px" viewBox="0 0 24 24" style="enable-background:new 0 0 24 24;" xml:space="preserve">
<title>admin-links</title>
<path d="M20.5,3.5c2,2,2,5.2,0,7.2l-1.8,1.8c-1.3,1.3-3.2,1.8-4.9,1.3l3.1-3l0.9-0.9l0.9-0.9c1-1,1-2.6,0-3.5c-1-1-2.6-1-3.5,0
	l-0.9,0.9l-4,4c-0.4-1.7,0-3.5,1.3-4.9l1.8-1.8C15.3,1.5,18.6,1.5,20.5,3.5z M9.7,16L16,9.7c0.5-0.5,0.5-1.3,0-1.8
	c-0.5-0.5-1.4-0.5-1.8,0l-6.3,6.3c-0.5,0.5-0.5,1.3,0,1.8C8.4,16.5,9.2,16.5,9.7,16z M8.8,18.8l4.9-4.9c0.5,1.7,0,3.5-1.3,4.9
	l-1.8,1.8c-2,2-5.2,2-7.2,0s-2-5.2,0-7.2l1.8-1.8c1.3-1.3,3.2-1.8,4.9-1.3l-4.9,4.9c-1,1-1,2.6,0,3.6C6.2,19.7,7.8,19.7,8.8,18.8z"
	/>
</svg>
