<?xml version="1.0" encoding="utf-8"?>
<!-- Generator: Adobe Illustrator 21.1.0, SVG Export Plug-In . SVG Version: 6.00 Build 0)  -->
<svg version="1.1" id="Layer_1" xmlns="http://www.w3.org/2000/svg" xmlns:xlink="http://www.w3.org/1999/xlink" x="0px" y="0px"
	 width="24px" height="24px" viewBox="0 0 24 24" style="enable-background:new 0 0 24 24;" xml:space="preserve">
<title>admin-site-alt</title>
<path d="M12,1C5.9,1,1,5.9,1,12s4.9,11,11,11s11-4.9,11-11S18.1,1,12,1z M21.2,8.9c-0.3,1.1-1.1,2-2.1,2.5c-0.5-2-2-3.8-4-4.6
	c0.2-0.5,0.5-1,0.9-1.3c-0.5-0.3-1.2-0.5-1.6,0.1c-0.6,0.8,0,1.9,0.3,2.4v0.2c-0.7-0.4-1.2-1-1.5-1.7c-1.2,0-2.3,0.2-3.4,0.8
	c-0.1-0.7,0-1.4,0.2-2c0.9,0.1,1.7-0.3,2.3-1c0.6-0.6-0.2-1.4-0.7-1.9H12c1.6,0,3.3,0.4,4.8,1.2c1.6,1.2,2.6,3.2,2.8,5.2
	c0.3,0,0.8-0.7,1.1-1.1C20.9,8,21.1,8.4,21.2,8.9L21.2,8.9z M12,21.6c-2.5-2.5,0.3-4.6-1.2-6.4c-1.1-1-2.8-0.3-3.8-1.5
	C6.7,11.8,7.3,10,8.7,8.8c0.6-0.5,4.9-1.2,6.6,0.3c1,0.9,1.7,2,2,3.4c0.6,0,1.1-0.1,1.6-0.3C19.5,15.8,15.2,20.4,12,21.6z M7.3,3.5
	c0.9-0.4,2,0,2.6,0.8C9.5,4.9,8.7,5.2,8.1,5.3c0-0.4,0.1-0.7,0.2-1C8.3,4.2,7.3,3.5,7.3,3.5z"/>
</svg>
