<?xml version="1.0" encoding="utf-8"?>
<!-- Generator: Adobe Illustrator 21.1.0, SVG Export Plug-In . SVG Version: 6.00 Build 0)  -->
<svg version="1.1" id="Layer_1" xmlns="http://www.w3.org/2000/svg" xmlns:xlink="http://www.w3.org/1999/xlink" x="0px" y="0px"
	 width="24px" height="24px" viewBox="0 0 24 24" style="enable-background:new 0 0 24 24;" xml:space="preserve">
<title>admin-multisite</title>
<path d="M16.7,8.7L12,4.5L7.3,8.7L6.5,7.9L12,3l5.5,4.9L16.7,8.7z M16.4,10.4l-4.5,3.8l-4.3-3.8V9.5L12,5.6l4.4,3.9
	C16.4,9.5,16.4,10.4,16.4,10.4z M13.1,11.8V9.9h-2.2v1.9C10.9,11.8,13.1,11.8,13.1,11.8z M11.2,16.3l-4.7-4.1l-4.7,4.1L1,15.5
	l5.5-4.9l5.5,4.9L11.2,16.3z M22.2,16.3l-4.7-4.1l-4.7,4.1L12,15.5l5.5-4.9l5.5,4.9L22.2,16.3z M6.5,13.2l4.4,3.9V21H2.1v-3.9
	L6.5,13.2z M17.5,13.2l4.4,3.9V21h-8.8v-3.9L17.5,13.2z M7.6,19.9v-2.2H5.4v2.2H7.6z M18.6,19.9v-2.2h-2.2v2.2H18.6z"/>
</svg>
