<?xml version="1.0" encoding="utf-8"?>
<!-- Generator: Adobe Illustrator 21.1.0, SVG Export Plug-In . SVG Version: 6.00 Build 0)  -->
<svg version="1.1" id="Layer_1" xmlns="http://www.w3.org/2000/svg" xmlns:xlink="http://www.w3.org/1999/xlink" x="0px" y="0px"
	 width="24px" height="24px" viewBox="0 0 24 24" style="enable-background:new 0 0 24 24;" xml:space="preserve">
<title>admin-tools</title>
<path d="M20.4,11.7c-1.7,1.7-4.1,2.1-6.2,1.2l-6.8,8.1c-1.2,1.2-3.2,1.2-4.5,0c-1.2-1.2-1.2-3.2,0-4.5l8.1-6.8
	c-0.8-2.1-0.4-4.5,1.2-6.2c1.6-1.6,3.9-2,5.9-1.3l-3.6,3.6l3.5,3.5l3.6-3.6C22.4,7.8,21.9,10.1,20.4,11.7z M4.3,19.7
	c0.5,0.5,1.3,0.5,1.8,0c0.5-0.5,0.5-1.3,0-1.8c-0.5-0.5-1.3-0.5-1.8,0C3.8,18.4,3.8,19.2,4.3,19.7z"/>
</svg>
