<?xml version="1.0" encoding="utf-8"?>
<!-- Generator: Adobe Illustrator 21.1.0, SVG Export Plug-In . SVG Version: 6.00 Build 0)  -->
<svg version="1.1" id="Layer_1" xmlns="http://www.w3.org/2000/svg" xmlns:xlink="http://www.w3.org/1999/xlink" x="0px" y="0px"
	 width="24px" height="24px" viewBox="0 0 24 24" style="enable-background:new 0 0 24 24;" xml:space="preserve">
<title>admin-appearance</title>
<path d="M16.8,13.6L8.5,4.4l1.8-2c0.6-0.7,2.7-0.6,4.1,0.4c1.4,1,1.7,1.7,3.4,2.7c1.4,0.8,2.9,1.6,5.2,1.1L16.8,13.6z M16,14.6
	L7.7,5.3L5.6,7.7C5.1,8.2,5.1,9,5.6,9.5l1.2,1.4c0.5,0.5,0.5,1.3,0,1.9c-0.7,0.8-1.7,1.4-2.6,2.2c-0.4,0.3-0.8,0.7-1.2,1.1
	c-1.6,1.7-2.8,4.2-1.6,5.5c1.2,1.3,3.3,0,4.9-1.8c0.4-0.4,0.7-0.9,1-1.3c0.7-1,1.3-2.1,2-2.9c0.5-0.5,1.2-0.5,1.7,0l1.2,1.4
	c0.5,0.5,1.2,0.5,1.7,0L16,14.6z"/>
</svg>
