<?xml version="1.0" encoding="utf-8"?>
<!-- Generator: Adobe Illustrator 21.1.0, SVG Export Plug-In . SVG Version: 6.00 Build 0)  -->
<svg version="1.1" id="Layer_1" xmlns="http://www.w3.org/2000/svg" xmlns:xlink="http://www.w3.org/1999/xlink" x="0px" y="0px"
	 width="24px" height="24px" viewBox="0 0 24 24" style="enable-background:new 0 0 24 24;" xml:space="preserve">
<title>admin-plugins</title>
<path d="M16.1,4.7l-4.2,4.2L9.4,6.4l4.2-4.2c0.5-0.4,1.4-0.3,2,0.4C16.3,3.3,16.5,4.2,16.1,4.7z M5.6,7l1.2-1.5l11.8,11.7L17,18.3
	c-0.9,0.9-3.4,1.5-5,1.5H7l-1.6,1.6c-0.8,0.8-2,0.8-2.8,0c-0.8-0.8-0.8-2,0-2.8l1.6-1.6v-5C4.2,10.6,4.7,7.9,5.6,7z M15.1,12.1
	l4.2-4.2c0.4-0.5,1.4-0.3,2,0.4c0.7,0.7,0.9,1.6,0.4,2l-4.2,4.2L15.1,12.1z"/>
</svg>
