<?xml version="1.0" encoding="utf-8"?>
<!-- Generator: Adobe Illustrator 21.1.0, SVG Export Plug-In . SVG Version: 6.00 Build 0)  -->
<svg version="1.1" id="Layer_1" xmlns="http://www.w3.org/2000/svg" xmlns:xlink="http://www.w3.org/1999/xlink" x="0px" y="0px"
	 width="24px" height="24px" viewBox="0 0 24 24" style="enable-background:new 0 0 24 24;" xml:space="preserve">
<title>admin-customizer</title>
<path d="M21.9,4.1c0,0,0.3-1-0.4-1.7c-0.6-0.6-1.4-0.3-1.4-0.3c-0.7,0.4-6.8,4.3-9,6.9c-1,1.2-2.4,4.7-1.3,6
	c1.1,1.2,4.7-0.2,5.6-1.2C17.9,11.2,21.6,4.8,21.9,4.1z M2,21.5c2.8-1.9,1.7-4.2,3.8-5.7C6.9,15,8.4,15,9.4,16.1
	c0.7,0.8,0.9,3.2-0.2,4.3C7.4,22.2,4.5,22.3,2,21.5z"/>
</svg>
