<?xml version="1.0" encoding="utf-8"?>
<!-- Generator: Adobe Illustrator 21.1.0, SVG Export Plug-In . SVG Version: 6.00 Build 0)  -->
<svg version="1.1" id="Layer_1" xmlns="http://www.w3.org/2000/svg" xmlns:xlink="http://www.w3.org/1999/xlink" x="0px" y="0px"
	 width="24px" height="24px" viewBox="0 0 24 24" style="enable-background:new 0 0 24 24;" xml:space="preserve">
<title>admin-post</title>
<path d="M12.5,4.1L14.6,2L22,9.4l-2.1,2.1c-1.2-0.8-2.9-0.7-4,0.4L15,12.8c-1.1,1.1-1.2,2.7-0.4,4l-2.1,2.1L9.7,16l-3.2,3.2
	c-0.5,0.5-3.9,3.1-4.4,2.7s2.2-3.9,2.6-4.4l3.2-3.2l-2.8-2.8l2.1-2.1c1.2,0.8,2.9,0.7,3.9-0.4l0.9-0.9C13.2,7,13.3,5.3,12.5,4.1z"/>
</svg>
