<?xml version="1.0" encoding="utf-8"?>
<!-- Generator: Adobe Illustrator 21.1.0, SVG Export Plug-In . SVG Version: 6.00 Build 0)  -->
<svg version="1.1" id="Layer_1" xmlns="http://www.w3.org/2000/svg" xmlns:xlink="http://www.w3.org/1999/xlink" x="0px" y="0px"
	 width="24px" height="24px" viewBox="0 0 24 24" style="enable-background:new 0 0 24 24;" xml:space="preserve">
<title>admin-media</title>
<path d="M15.3,13.1V5.3c0-0.6-0.5-1.1-1.1-1.1h-1.9L10.9,2H6.4L5,4.2H3.1C2.5,4.2,2,4.7,2,5.3v7.8c0,0.6,0.5,1.1,1.1,1.1h11.1
	C14.8,14.2,15.3,13.7,15.3,13.1z M8.7,5.9c1.5,0,2.8,1.2,2.8,2.8s-1.2,2.8-2.8,2.8s-2.8-1.2-2.8-2.8S7.1,5.9,8.7,5.9z M16.4,7.6H22
	v11.7c0,1.5-1.2,2.8-2.8,2.8c-1.5,0-2.8-1.2-2.8-2.8c0-1.5,1.2-2.8,2.8-2.8c0.2,0,0.4,0,0.6,0.1v-5.6h-3.3
	C16.4,10.9,16.4,7.6,16.4,7.6z M12,16.5v-1.2h2.2v3.9c0,1.5-1.2,2.8-2.8,2.8s-2.8-1.2-2.8-2.8c0-1.5,1.2-2.8,2.8-2.8
	C11.6,16.4,11.8,16.5,12,16.5z"/>
</svg>
