<?xml version="1.0" encoding="utf-8"?>
<!-- Generator: Adobe Illustrator 21.1.0, SVG Export Plug-In . SVG Version: 6.00 Build 0)  -->
<svg version="1.1" id="Layer_1" xmlns="http://www.w3.org/2000/svg" xmlns:xlink="http://www.w3.org/1999/xlink" x="0px" y="0px"
	 width="24px" height="24px" viewBox="0 0 24 24" style="enable-background:new 0 0 24 24;" xml:space="preserve">
<title>admin-site</title>
<path d="M12,1C5.9,1,1,5.9,1,12s4.9,11,11,11s11-4.9,11-11S18.1,1,12,1z M16.3,15.6c0,1.8-1,4.1-5,5.7c0.4-5.1-3.1-4.5-3.9-6.1
	c0.2-1.3,1-2.5,2.2-3.2c-2-0.2-3.8-1-5.2-2.3c0.1,0.6,0.3,1.1,0.8,1.5c-0.9-0.4-1.7-1-2.3-1.8c1.2-4,4.8-6.7,8.9-6.9
	c-1,1.7-1.8,5.1,0,6.8C10,9.6,8.7,7.1,7.7,8c-1.4,1.3,0.4,3.1,4.2,3.8C15.8,12.6,16.3,13.7,16.3,15.6z M17.9,10.7
	c-0.4-1.3,0.7-2.7,2-3.9c1.6,2.3,2,5.4,1,8.1C20,12.7,18.3,12.2,17.9,10.7L17.9,10.7z"/>
</svg>
