<?xml version="1.0" encoding="utf-8"?>
<!-- Generator: Adobe Illustrator 21.1.0, SVG Export Plug-In . SVG Version: 6.00 Build 0)  -->
<svg version="1.1" id="Layer_1" xmlns="http://www.w3.org/2000/svg" xmlns:xlink="http://www.w3.org/1999/xlink" x="0px" y="0px"
	 width="24px" height="24px" viewBox="0 0 24 24" style="enable-background:new 0 0 24 24;" xml:space="preserve">
<title>admin-settings</title>
<path d="M21,19.7V4.3C21,3.5,20.5,3,19.8,3H4.2C3.5,3,3,3.5,3,4.3v15.4C3,20.5,3.5,21,4.2,21h15.6C20.5,21,21,20.5,21,19.7z M9,13.3
	h1.2c0.7,0,1.2,0.5,1.2,1.3c0,0.7-0.5,1.3-1.2,1.3H9v1.9c0,0.3-0.3,0.6-0.6,0.6s-0.6-0.3-0.6-0.6v-1.9H6.6c-0.7,0-1.2-0.5-1.2-1.3
	c0-0.8,0.5-1.3,1.2-1.3h1.2V6.2c0-0.3,0.3-0.6,0.6-0.6S9,5.9,9,6.2V13.3z M15,10.7h-1.2c-0.7,0-1.2-0.5-1.2-1.3
	c0-0.7,0.5-1.3,1.2-1.3H15V6.2c0-0.3,0.3-0.6,0.6-0.6s0.6,0.3,0.6,0.6v1.9h1.2c0.7,0,1.2,0.5,1.2,1.3c0,0.8-0.5,1.3-1.2,1.3h-1.2
	v7.1c0,0.3-0.3,0.6-0.6,0.6S15,18.1,15,17.8V10.7z"/>
</svg>
