<?xml version="1.0" encoding="utf-8"?>
<!-- Generator: Adobe Illustrator 21.1.0, SVG Export Plug-In . SVG Version: 6.00 Build 0)  -->
<svg version="1.1" id="Layer_1" xmlns="http://www.w3.org/2000/svg" xmlns:xlink="http://www.w3.org/1999/xlink" x="0px" y="0px"
	 width="24px" height="24px" viewBox="0 0 24 24" style="enable-background:new 0 0 24 24;" xml:space="preserve">
<title>album</title>
<path d="M1,21h11v-0.3c1.7,0.4,3.5,0.4,5.2-0.3c4.6-1.7,6.9-6.9,5.2-11.5C20.9,4.5,16.3,2.1,12,3.3V3H1C1,3,1,21,1,21z M10.9,4.1
	v15.8H2.1V4.1C2.1,4.1,10.9,4.1,10.9,4.1z M16.9,13.4c-0.7,1.5-2.6,2.1-4,1.4c-0.3-0.2-0.6-0.4-0.9-0.7V9.9c0.9-1,2.3-1.3,3.5-0.7
	C17,10,17.6,11.9,16.9,13.4z M13.9,12.4c0.2,0.2,0.6,0.1,0.8-0.1c0.2-0.2,0.1-0.6-0.1-0.8c-0.2-0.2-0.6-0.1-0.8,0.1
	C13.6,11.9,13.6,12.3,13.9,12.4z M17.2,16.6c-1.3,0.9-2.8,1.1-4.2,0.8c-0.3-0.1-0.5-0.4-0.4-0.7s0.4-0.5,0.7-0.4l0.2,0
	c1.1,0.2,2.2,0,3.1-0.7c0.5-0.4,0.9-0.8,1.3-1.3c0.2-0.3,0.5-0.3,0.8-0.2c0.3,0.2,0.3,0.5,0.2,0.8C18.4,15.6,17.8,16.1,17.2,16.6z
	 M18.3,18.3c-1.6,1.1-3.5,1.5-5.3,1.2c-0.3-0.1-0.5-0.4-0.5-0.7c0.1-0.3,0.4-0.5,0.7-0.4l0.2,0c1.4,0.2,2.9-0.2,4.3-1.1
	c0.8-0.5,1.4-1.2,1.9-2c0.2-0.3,0.5-0.3,0.7-0.2c0.3,0.2,0.3,0.5,0.2,0.8C20,16.9,19.2,17.7,18.3,18.3z"/>
</svg>
