<?xml version="1.0" encoding="utf-8"?>
<!-- Generator: Adobe Illustrator 21.1.0, SVG Export Plug-In . SVG Version: 6.00 Build 0)  -->
<svg version="1.1" id="Layer_1" xmlns="http://www.w3.org/2000/svg" xmlns:xlink="http://www.w3.org/1999/xlink" x="0px" y="0px"
	 width="24px" height="24px" viewBox="0 0 24 24" style="enable-background:new 0 0 24 24;" xml:space="preserve">
<title>analytics</title>
<path d="M22,22V2H2v20H22z M19.5,5.8h-15V4.5h15V5.8z M8.2,8.3V12H12c0,2.1-1.7,3.8-3.8,3.8S4.5,14.1,4.5,12S6.2,8.3,8.2,8.3z
	 M9.5,10.8V8.3c1.4,0,2.5,1.1,2.5,2.5C12,10.8,9.5,10.8,9.5,10.8z M19.5,9.5h-5V8.3h5V9.5z M19.5,13.3h-5v-2.5h5
	C19.5,10.8,19.5,13.3,19.5,13.3z M19.5,15.8h-5v-1.2h5V15.8z M19.5,19.5h-15v-1.3h15V19.5z"/>
</svg>
